<?xml version="1.0" encoding="utf-8"?>
<!-- Generator: Adobe Illustrator 24.0.2, SVG Export Plug-In . SVG Version: 6.00 Build 0)  -->
<svg version="1.1" id="Camada_1" xmlns="http://www.w3.org/2000/svg" xmlns:xlink="http://www.w3.org/1999/xlink" x="0px" y="0px"
	 viewBox="0 0 156 70.7" style="enable-background:new 0 0 156 70.7;" xml:space="preserve">
<style type="text/css">
	.st0{fill:#83368D;stroke:#82368C;stroke-width:0.5;stroke-miterlimit:10;}
	.st1{fill:#31B627;stroke:#31B627;stroke-width:0.5;stroke-miterlimit:10;}
	.st2{fill:#31B627;}
	.st3{fill:#82368C;}
</style>
<g>
	<g>
		<path id="XMLID_236_" class="st0" d="M-17.4,92.3c0.7-0.5,1.1-1.1,1.4-1.9l9-0.3c0.1,0.5,0.3,1,0.6,1.5c0.4,0.5,0.9,0.9,1.4,1.1
			l-2.7,8.8c-0.9-0.1-1.7,0.1-2.5,0.6c-0.8,0.6-1.3,1.4-1.4,2.2c-0.1,0.9,0.1,1.7,0.6,2.5c0.6,0.8,1.3,1.2,2.1,1.4
			c0.9,0.1,1.7-0.1,2.6-0.6c0.8-0.6,1.3-1.4,1.4-2.2c0.1-0.9-0.1-1.7-0.6-2.5c-0.4-0.5-0.8-0.9-1.2-1.1l2.8-8.9
			c0.8,0.1,1.6-0.1,2.3-0.6c0.8-0.6,1.3-1.4,1.4-2.2s-0.1-1.7-0.6-2.5c-0.6-0.8-1.3-1.2-2.1-1.4c-0.9-0.1-1.7,0.1-2.6,0.6
			c-0.8,0.6-1.3,1.3-1.4,2.1l-8.9,0.3c-0.1-0.6-0.3-1.2-0.6-1.8c-0.6-0.8-1.3-1.2-2.1-1.4c-0.9-0.1-1.7,0.1-2.6,0.6
			c-0.8,0.6-1.3,1.4-1.4,2.2c-0.1,0.9,0.1,1.7,0.6,2.5c0.6,0.8,1.3,1.2,2.1,1.4C-19.1,93.1-18.2,92.9-17.4,92.3z M-6,105.4
			c-0.1,0.6-0.4,1.1-1,1.5s-1.1,0.6-1.7,0.4c-0.6-0.1-1.1-0.4-1.5-1c-0.4-0.6-0.6-1.1-0.4-1.7c0.1-0.6,0.4-1.1,1-1.5
			c0.6-0.4,1.1-0.6,1.7-0.4l0,0c0.6,0.1,1.1,0.4,1.5,1C-6.1,104.2-5.9,104.8-6,105.4z M-6.1,89.4c0.1-0.6,0.4-1.1,1-1.5
			c0.6-0.4,1.1-0.6,1.7-0.4l0,0c0.6,0.1,1.1,0.4,1.5,1c0.4,0.6,0.6,1.1,0.4,1.7c-0.1,0.6-0.4,1.1-1,1.5c-0.6,0.4-1.1,0.6-1.7,0.4
			c-0.6-0.1-1.1-0.4-1.5-1C-6,90.5-6.1,89.9-6.1,89.4z M-21.7,89.1c0.1-0.6,0.4-1.1,1-1.5c0.6-0.4,1.1-0.6,1.7-0.4l0,0
			c0.6,0.1,1.1,0.4,1.5,1c0.4,0.6,0.6,1.1,0.4,1.7c-0.1,0.6-0.4,1.1-1,1.5c-0.6,0.4-1.1,0.6-1.7,0.4c-0.6-0.1-1.1-0.4-1.5-1
			C-21.7,90.4-21.8,89.8-21.7,89.1z"/>
		<path id="XMLID_149_" class="st1" d="M-19.4,95.8c-0.9,0-1.6,0.2-2.1,0.7l-7.4-5c0.2-0.5,0.4-1,0.4-1.6c0-0.6-0.1-1.2-0.4-1.8
			l7.4-5.6c0.6,0.6,1.4,0.9,2.4,0.9c1,0,1.9-0.4,2.4-1c0.6-0.6,0.9-1.4,0.9-2.4s-0.3-1.7-0.9-2.4c-0.6-0.6-1.4-1-2.4-1
			c-1,0-1.8,0.4-2.4,1s-0.9,1.4-0.9,2.4c0,0.6,0.1,1.1,0.4,1.6l-7.4,5.6c-0.6-0.5-1.4-0.8-2.2-0.8c-1,0-1.8,0.4-2.4,1
			c-0.6,0.6-0.9,1.4-0.9,2.4c0,0.9,0.3,1.7,0.9,2.4c0.6,0.6,1.4,1,2.4,1c1,0,1.8-0.3,2.4-0.9l7.4,5c-0.4,0.5-0.5,1.1-0.5,1.9
			c0,0.9,0.3,1.7,0.9,2.4c0.6,0.6,1.4,1,2.4,1s1.9-0.4,2.4-1c0.6-0.6,0.9-1.4,0.9-2.4s-0.3-1.7-0.9-2.4
			C-17.7,96.1-18.4,95.8-19.4,95.8z M-21.2,78.4c0.4-0.4,1-0.6,1.6-0.6s1.3,0.2,1.6,0.6c0.4,0.4,0.6,1,0.6,1.6s-0.2,1.2-0.6,1.6
			s-0.9,0.6-1.6,0.6s-1.3-0.2-1.6-0.6l0,0c-0.4-0.4-0.6-1-0.6-1.6C-21.7,79.4-21.5,78.9-21.2,78.4z M-30.5,91.6
			c-0.4,0.4-0.9,0.6-1.6,0.6c-0.7,0-1.3-0.2-1.6-0.6l0,0c-0.4-0.4-0.6-1-0.6-1.6s0.2-1.2,0.6-1.6s1-0.6,1.6-0.6
			c0.7,0,1.3,0.2,1.6,0.6c0.4,0.4,0.6,1,0.6,1.6S-30,91.1-30.5,91.6z M-17.8,100.8c-0.4,0.4-0.9,0.6-1.6,0.6s-1.3-0.2-1.6-0.6l0,0
			c-0.4-0.4-0.6-1-0.6-1.6s0.2-1.2,0.6-1.6c0.4-0.4,1-0.6,1.6-0.6s1.3,0.2,1.6,0.6c0.4,0.4,0.6,1,0.6,1.6
			C-17.2,99.8-17.4,100.4-17.8,100.8z"/>
	</g>
	<g>
		<path id="XMLID_146_" class="st2" d="M11.5,107.5c-0.3,0.1-0.8,0.2-1.4,0.3c-0.7,0.1-1.3,0.1-1.9,0.1c-0.6,0-1.2,0-1.7-0.1
			s-0.9-0.3-1.2-0.5c-0.3-0.2-0.6-0.6-0.7-1c-0.2-0.4-0.2-1-0.2-1.7v-22c0.3-0.1,0.8-0.1,1.5-0.2s1.3-0.1,1.9-0.1s1.2,0,1.7,0.1
			s0.9,0.3,1.2,0.5c0.3,0.2,0.6,0.6,0.7,1c0.2,0.4,0.3,1,0.3,1.7v21.9H11.5z"/>
		<path id="XMLID_144_" class="st2" d="M26.1,92.4c-0.7,0-1.4,0.1-2,0.3c-0.6,0.2-1.2,0.5-1.6,1c-0.5,0.4-0.8,1-1.1,1.6
			c-0.3,0.6-0.4,1.4-0.4,2.2c0,1.7,0.5,3,1.5,3.9s2.2,1.3,3.6,1.3c0.8,0,1.6-0.1,2.2-0.3c0.6-0.2,1.2-0.4,1.6-0.6
			c0.6,0.4,1,0.8,1.2,1.3c0.3,0.5,0.4,1,0.4,1.6c0,1.1-0.5,2-1.6,2.6s-2.6,0.9-4.5,0.9c-1.7,0-3.3-0.3-4.7-0.8s-2.6-1.2-3.6-2.2
			c-1-0.9-1.8-2-2.4-3.4c-0.6-1.3-0.8-2.7-0.8-4.3c0-1.8,0.3-3.4,0.9-4.8c0.6-1.4,1.4-2.5,2.4-3.4s2.2-1.6,3.6-2
			c1.3-0.4,2.8-0.7,4.3-0.7c2,0,3.5,0.4,4.6,1.1s1.6,1.7,1.6,2.8c0,0.5-0.1,1-0.4,1.5s-0.5,0.9-0.9,1.2c-0.5-0.2-1-0.4-1.7-0.6
			C27.6,92.5,26.9,92.4,26.1,92.4z"/>
		<path id="XMLID_139_" class="st2" d="M53.7,97.6c0,1.7-0.3,3.3-0.8,4.6c-0.5,1.3-1.3,2.5-2.2,3.4c-1,0.9-2.1,1.6-3.4,2.1
			c-1.3,0.5-2.8,0.7-4.5,0.7c-1.6,0-3.1-0.2-4.5-0.7c-1.3-0.5-2.5-1.2-3.4-2.1c-1-0.9-1.7-2.1-2.2-3.4c-0.5-1.3-0.8-2.8-0.8-4.5
			c0-1.6,0.3-3.1,0.8-4.5c0.5-1.3,1.3-2.5,2.2-3.4c1-0.9,2.1-1.6,3.4-2.1c1.3-0.5,2.8-0.7,4.5-0.7c1.6,0,3.1,0.3,4.5,0.8
			c1.3,0.5,2.5,1.2,3.4,2.2c1,0.9,1.7,2.1,2.2,3.4C53.5,94.5,53.7,96,53.7,97.6z M44.1,76.7c1.4,0,2.5,0.3,3.1,0.8
			c0.7,0.6,1,1.2,1,2c0,0.7-0.2,1.3-0.6,1.8c-0.4,0.5-1,1-1.9,1.4l-5.4,2.8c-0.8-0.1-1.5-0.4-2.1-1s-0.9-1.2-0.9-1.9
			c0-0.3,0.1-0.7,0.3-1c0.2-0.3,0.4-0.6,0.8-0.9L44.1,76.7z M39.2,97.6c0,1.7,0.3,3,1,3.9s1.6,1.4,2.7,1.4c1.2,0,2.1-0.5,2.7-1.4
			c0.6-0.9,0.9-2.2,0.9-3.9c0-1.7-0.3-2.9-1-3.9c-0.6-0.9-1.5-1.4-2.7-1.4s-2.1,0.5-2.7,1.4S39.2,95.9,39.2,97.6z"/>
		<path id="XMLID_136_" class="st3" d="M72.6,101.6c0,2.1-0.8,3.8-2.4,5s-3.9,1.8-7,1.8c-1.2,0-2.2-0.1-3.2-0.2
			c-1-0.2-1.9-0.4-2.6-0.8c-0.7-0.3-1.3-0.8-1.7-1.3s-0.6-1.2-0.6-1.9c0-0.7,0.1-1.2,0.4-1.7c0.3-0.5,0.6-0.8,1-1.1
			c0.8,0.4,1.7,0.8,2.8,1.2c1,0.3,2.2,0.5,3.6,0.5c0.9,0,1.5-0.1,2-0.4c0.5-0.2,0.7-0.6,0.7-1s-0.2-0.7-0.5-0.9
			c-0.3-0.2-0.9-0.4-1.7-0.5l-1.2-0.2c-2.4-0.5-4.2-1.2-5.4-2.2S55,95.4,55,93.5c0-1,0.2-2,0.7-2.8c0.4-0.8,1.1-1.5,1.9-2.1
			c0.8-0.6,1.8-1,2.9-1.3c1.1-0.3,2.4-0.5,3.7-0.5c1,0,2,0.1,2.9,0.2c0.9,0.2,1.7,0.4,2.4,0.7c0.7,0.3,1.2,0.7,1.6,1.2
			s0.6,1.1,0.6,1.7s-0.1,1.2-0.4,1.6c-0.2,0.5-0.5,0.8-0.9,1.1c-0.2-0.1-0.6-0.3-1-0.4c-0.4-0.2-0.9-0.3-1.5-0.4
			c-0.5-0.1-1.1-0.2-1.6-0.3s-1-0.1-1.5-0.1c-0.9,0-1.6,0.1-2.1,0.3c-0.5,0.2-0.7,0.5-0.7,1c0,0.3,0.1,0.6,0.4,0.7
			c0.3,0.2,0.8,0.4,1.6,0.5l1.3,0.3c2.7,0.6,4.6,1.5,5.7,2.5C72,98.6,72.6,99.9,72.6,101.6z"/>
		<path id="XMLID_133_" class="st3" d="M95.5,97.6c0,1.7-0.3,3.3-0.8,4.6c-0.5,1.3-1.3,2.5-2.2,3.4s-2.1,1.6-3.4,2.1
			s-2.8,0.7-4.5,0.7c-1.6,0-3.1-0.2-4.5-0.7c-1.3-0.5-2.5-1.2-3.4-2.1c-1-0.9-1.7-2.1-2.2-3.4c-0.5-1.3-0.8-2.8-0.8-4.5
			c0-1.6,0.3-3.1,0.8-4.5c0.5-1.3,1.3-2.5,2.2-3.4c1-0.9,2.1-1.6,3.4-2.1s2.8-0.7,4.5-0.7c1.6,0,3.1,0.3,4.5,0.8
			c1.3,0.5,2.5,1.2,3.4,2.2c1,0.9,1.7,2.1,2.2,3.4C95.2,94.5,95.5,96,95.5,97.6z M80.9,97.6c0,1.7,0.3,3,1,3.9s1.6,1.4,2.7,1.4
			c1.2,0,2.1-0.5,2.7-1.4s0.9-2.2,0.9-3.9c0-1.7-0.3-2.9-1-3.9c-0.6-0.9-1.5-1.4-2.7-1.4s-2.1,0.5-2.7,1.4S80.9,95.9,80.9,97.6z"/>
		<path id="XMLID_130_" class="st3" d="M108.7,92.4c-0.7,0-1.4,0.1-2,0.3c-0.6,0.2-1.2,0.5-1.6,1c-0.5,0.4-0.8,1-1.1,1.6
			c-0.3,0.6-0.4,1.4-0.4,2.2c0,1.7,0.5,3,1.5,3.9s2.2,1.3,3.6,1.3c0.8,0,1.6-0.1,2.2-0.3c0.6-0.2,1.2-0.4,1.6-0.6
			c0.6,0.4,1,0.8,1.2,1.3c0.3,0.5,0.4,1,0.4,1.6c0,1.1-0.5,2-1.6,2.6s-2.6,0.9-4.5,0.9c-1.7,0-3.3-0.3-4.7-0.8s-2.6-1.2-3.6-2.2
			c-1-0.9-1.8-2-2.4-3.4c-0.6-1.3-0.8-2.7-0.8-4.3c0-1.8,0.3-3.4,0.9-4.8s1.4-2.5,2.4-3.4s2.2-1.6,3.6-2c1.3-0.4,2.8-0.7,4.3-0.7
			c2,0,3.5,0.4,4.6,1.1s1.6,1.7,1.6,2.8c0,0.5-0.1,1-0.4,1.5s-0.5,0.9-0.9,1.2c-0.5-0.2-1-0.4-1.7-0.6
			C110.2,92.5,109.5,92.4,108.7,92.4z"/>
		<path id="XMLID_127_" class="st3" d="M123.2,107.6c-0.3,0.1-0.8,0.1-1.4,0.2s-1.2,0.1-1.8,0.1c-0.6,0-1.2,0-1.6-0.1
			c-0.5-0.1-0.9-0.2-1.2-0.5c-0.3-0.2-0.6-0.6-0.8-1c-0.2-0.4-0.3-1-0.3-1.7V87.7c0.3-0.1,0.8-0.1,1.4-0.2s1.2-0.1,1.8-0.1
			c0.6,0,1.2,0,1.6,0.1c0.5,0.1,0.9,0.2,1.2,0.5c0.3,0.2,0.6,0.6,0.8,1c0.2,0.4,0.3,1,0.3,1.7V107.6z"/>
		<path id="XMLID_123_" class="st3" d="M134.4,86.8c1.5,0,2.9,0.2,4.1,0.5c1.2,0.3,2.3,0.8,3.2,1.4c0.9,0.6,1.5,1.4,2,2.4
			s0.7,2.1,0.7,3.4v9.3c0,0.7-0.2,1.3-0.6,1.8c-0.4,0.5-0.9,0.9-1.4,1.2c-1.8,1.1-4.3,1.6-7.6,1.6c-1.5,0-2.8-0.1-4-0.4
			c-1.2-0.3-2.2-0.7-3-1.2c-0.8-0.6-1.5-1.3-2-2.1c-0.5-0.9-0.7-1.9-0.7-3c0-1.9,0.6-3.4,1.7-4.4s2.9-1.7,5.3-1.9l5.5-0.6v-0.3
			c0-0.8-0.4-1.4-1.1-1.7c-0.7-0.3-1.7-0.5-3.1-0.5c-1.1,0-2.1,0.1-3.1,0.3c-1,0.2-1.9,0.5-2.7,0.8c-0.4-0.3-0.7-0.6-0.9-1.1
			c-0.2-0.5-0.4-1-0.4-1.6c0-0.7,0.2-1.3,0.5-1.7s0.9-0.8,1.6-1.1c0.8-0.3,1.8-0.5,2.9-0.7C132.4,86.9,133.4,86.8,134.4,86.8z
			 M134.7,103.2c0.5,0,1,0,1.6-0.1s1-0.2,1.3-0.4v-3.3l-3,0.2c-0.8,0.1-1.4,0.2-1.9,0.5c-0.5,0.3-0.7,0.7-0.7,1.2
			c0,0.6,0.2,1,0.6,1.4C132.9,103,133.7,103.2,134.7,103.2z"/>
		<path id="XMLID_117_" class="st3" d="M154.2,107.6c-0.3,0.1-0.8,0.1-1.4,0.2s-1.2,0.1-1.8,0.1s-1.2,0-1.6-0.1
			c-0.5-0.1-0.9-0.2-1.2-0.5c-0.3-0.2-0.6-0.6-0.8-1c-0.2-0.4-0.3-1-0.3-1.7V80.5c0.3-0.1,0.8-0.1,1.4-0.2c0.6-0.1,1.2-0.1,1.8-0.1
			s1.2,0,1.6,0.1c0.5,0.1,0.9,0.2,1.2,0.5c0.3,0.2,0.6,0.6,0.8,1c0.2,0.4,0.3,1,0.3,1.7V107.6z"/>
	</g>
</g>
<g>
	<path id="XMLID_19_" class="st3" d="M106.7,23.2c1-0.7,1.6-1.6,1.9-2.6l12.6-0.4c0.1,0.7,0.4,1.4,0.9,2.1s1.2,1.3,2,1.6l-3.8,12.3
		c-1.2-0.2-2.4,0.1-3.5,0.9c-1.1,0.8-1.8,1.9-2,3.1c-0.2,1.2,0.1,2.4,0.9,3.5s1.8,1.7,3,2c1.2,0.2,2.4-0.1,3.6-0.9
		c1.1-0.8,1.8-1.9,2-3.1c0.2-1.2-0.1-2.4-0.9-3.5c-0.5-0.7-1.1-1.2-1.7-1.5l3.9-12.4c1.1,0.1,2.2-0.2,3.2-0.9c1.1-0.8,1.8-1.9,2-3.1
		c0.2-1.2-0.1-2.4-0.9-3.5s-1.8-1.7-3-2c-1.2-0.2-2.4,0.1-3.6,0.9c-1.1,0.8-1.8,1.8-2,3l-12.5,0.4c-0.1-0.9-0.4-1.7-0.9-2.5
		c-0.8-1.1-1.8-1.7-3-2c-1.2-0.2-2.4,0.1-3.6,0.9c-1.1,0.8-1.8,1.9-2,3.1s0.1,2.4,0.9,3.5s1.8,1.7,3,2
		C104.4,24.3,105.6,24,106.7,23.2z M122.7,41.5c-0.1,0.8-0.6,1.5-1.4,2.1s-1.6,0.8-2.4,0.6c-0.9-0.2-1.5-0.6-2.1-1.4
		c-0.5-0.8-0.8-1.5-0.6-2.4c0.1-0.8,0.6-1.5,1.4-2.1s1.6-0.8,2.4-0.6l0,0c0.8,0.2,1.5,0.6,2.1,1.4C122.6,39.9,122.8,40.7,122.7,41.5
		z M122.6,19.1c0.1-0.8,0.6-1.5,1.4-2.1s1.6-0.8,2.4-0.6l0,0c0.8,0.2,1.5,0.6,2.1,1.4c0.5,0.8,0.8,1.6,0.6,2.4
		c-0.1,0.8-0.6,1.5-1.4,2.1s-1.6,0.8-2.4,0.6c-0.9-0.2-1.5-0.6-2.1-1.4C122.7,20.7,122.5,19.9,122.6,19.1z M100.7,18.8
		c0.1-0.8,0.6-1.5,1.4-2.1s1.6-0.8,2.4-0.6l0,0c0.8,0.2,1.5,0.6,2.1,1.4c0.5,0.8,0.8,1.6,0.6,2.4c-0.1,0.8-0.6,1.5-1.4,2.1
		s-1.6,0.8-2.4,0.6c-0.9-0.2-1.5-0.6-2.1-1.4C100.8,20.5,100.6,19.7,100.7,18.8z"/>
	<path id="XMLID_17_" class="st2" d="M103.9,28.1c-1.2,0-2.2,0.3-3,1l-10.4-7c0.3-0.7,0.5-1.4,0.5-2.2c0-0.9-0.2-1.7-0.6-2.5
		l10.3-7.8c0.9,0.9,2,1.3,3.3,1.3c1.4,0,2.6-0.5,3.4-1.4c0.9-0.9,1.3-2,1.3-3.3s-0.4-2.4-1.3-3.4c-0.9-0.9-2-1.4-3.4-1.4
		s-2.5,0.5-3.4,1.4s-1.3,2-1.3,3.3c0,0.8,0.2,1.6,0.5,2.2l-10.4,7.8c-0.8-0.7-1.9-1.1-3.1-1.1c-1.4,0-2.5,0.5-3.4,1.4
		c-0.9,0.9-1.3,2-1.3,3.3s0.4,2.4,1.3,3.3s2,1.4,3.4,1.4s2.5-0.4,3.3-1.3l10.3,7c-0.5,0.7-0.7,1.6-0.7,2.6c0,1.3,0.4,2.4,1.3,3.3
		c0.9,0.9,2,1.4,3.4,1.4s2.6-0.5,3.4-1.4c0.9-0.9,1.3-2,1.3-3.3s-0.4-2.4-1.3-3.4C106.4,28.5,105.3,28.1,103.9,28.1z M101.5,3.8
		c0.6-0.6,1.4-0.9,2.3-0.9s1.8,0.3,2.3,0.9c0.6,0.6,0.9,1.4,0.9,2.3s-0.3,1.7-0.9,2.3s-1.3,0.9-2.3,0.9S102,9,101.5,8.4l0,0
		c-0.6-0.6-0.9-1.4-0.9-2.3C100.7,5.2,101,4.5,101.5,3.8z M88.5,22.2c-0.6,0.6-1.3,0.9-2.3,0.9s-1.8-0.3-2.3-0.9l0,0
		c-0.6-0.6-0.9-1.4-0.9-2.3s0.3-1.7,0.9-2.3c0.6-0.6,1.4-0.9,2.3-0.9c1,0,1.8,0.3,2.3,0.9c0.6,0.6,0.9,1.4,0.9,2.3
		C89.4,20.8,89.1,21.5,88.5,22.2z M106.2,35.1c-0.6,0.6-1.3,0.9-2.3,0.9s-1.8-0.3-2.3-0.9l0,0c-0.6-0.6-0.9-1.4-0.9-2.3
		c0-0.9,0.3-1.7,0.9-2.3c0.6-0.6,1.4-0.9,2.3-0.9s1.8,0.3,2.3,0.9c0.6,0.6,0.9,1.4,0.9,2.3C107.1,33.7,106.8,34.5,106.2,35.1z"/>
	<path id="XMLID_15_" class="st2" d="M11.5,68.3c-0.3,0.1-0.8,0.2-1.4,0.3c-0.7,0.1-1.3,0.1-1.9,0.1c-0.6,0-1.2,0-1.7-0.1
		s-0.9-0.3-1.2-0.5c-0.3-0.2-0.6-0.6-0.7-1c-0.2-0.4-0.2-1-0.2-1.7v-22c0.3-0.1,0.8-0.1,1.5-0.2c0.7-0.1,1.3-0.1,1.9-0.1
		s1.2,0,1.7,0.1s0.9,0.3,1.2,0.5s0.6,0.6,0.7,1c0.2,0.4,0.3,1,0.3,1.7v21.9H11.5z"/>
	<path id="XMLID_13_" class="st2" d="M26.1,53.2c-0.7,0-1.4,0.1-2,0.3s-1.2,0.5-1.6,1c-0.5,0.4-0.8,1-1.1,1.6
		c-0.3,0.6-0.4,1.4-0.4,2.2c0,1.7,0.5,3,1.5,3.9s2.2,1.3,3.6,1.3c0.8,0,1.6-0.1,2.2-0.3s1.2-0.4,1.6-0.6c0.6,0.4,1,0.8,1.2,1.3
		c0.3,0.5,0.4,1,0.4,1.6c0,1.1-0.5,2-1.6,2.6S27.3,69,25.4,69c-1.7,0-3.3-0.3-4.7-0.8S18.1,67,17.1,66c-1-0.9-1.8-2-2.4-3.4
		c-0.6-1.3-0.8-2.7-0.8-4.3c0-1.8,0.3-3.4,0.9-4.8c0.6-1.4,1.4-2.5,2.4-3.4s2.2-1.6,3.6-2c1.3-0.4,2.8-0.7,4.3-0.7
		c2,0,3.5,0.4,4.6,1.1c1.1,0.7,1.6,1.7,1.6,2.8c0,0.5-0.1,1-0.4,1.5S30.4,53.7,30,54c-0.5-0.2-1-0.4-1.7-0.6
		C27.6,53.3,26.9,53.2,26.1,53.2z"/>
	<path id="XMLID_11_" class="st2" d="M53.7,58.4c0,1.7-0.3,3.3-0.8,4.6c-0.5,1.3-1.3,2.5-2.2,3.4c-1,0.9-2.1,1.6-3.4,2.1
		c-1.3,0.5-2.8,0.7-4.5,0.7c-1.6,0-3.1-0.2-4.5-0.7c-1.3-0.5-2.5-1.2-3.4-2.1c-1-0.9-1.7-2.1-2.2-3.4c-0.5-1.3-0.8-2.8-0.8-4.5
		c0-1.6,0.3-3.1,0.8-4.5c0.5-1.3,1.3-2.5,2.2-3.4c1-0.9,2.1-1.6,3.4-2.1c1.3-0.5,2.8-0.7,4.5-0.7c1.6,0,3.1,0.3,4.5,0.8
		c1.3,0.5,2.5,1.2,3.4,2.2c1,0.9,1.7,2.1,2.2,3.4C53.5,55.3,53.7,56.8,53.7,58.4z M44.1,37.5c1.4,0,2.5,0.3,3.1,0.8
		c0.7,0.6,1,1.2,1,2c0,0.7-0.2,1.3-0.6,1.8c-0.4,0.5-1,1-1.9,1.4l-5.4,2.8c-0.8-0.1-1.5-0.4-2.1-1s-0.9-1.2-0.9-1.9
		c0-0.3,0.1-0.7,0.3-1s0.4-0.6,0.8-0.9L44.1,37.5z M39.2,58.4c0,1.7,0.3,3,1,3.9s1.6,1.4,2.7,1.4c1.2,0,2.1-0.5,2.7-1.4
		c0.6-0.9,0.9-2.2,0.9-3.9s-0.3-2.9-1-3.9c-0.6-0.9-1.5-1.4-2.7-1.4s-2.1,0.5-2.7,1.4S39.2,56.7,39.2,58.4z"/>
	<path id="XMLID_10_" class="st3" d="M72.6,62.4c0,2.1-0.8,3.8-2.4,5s-3.9,1.8-7,1.8c-1.2,0-2.2-0.1-3.2-0.2c-1-0.2-1.9-0.4-2.6-0.8
		c-0.7-0.3-1.3-0.8-1.7-1.3s-0.6-1.2-0.6-1.9c0-0.7,0.1-1.2,0.4-1.7c0.3-0.5,0.6-0.8,1-1.1c0.8,0.4,1.7,0.8,2.8,1.2
		c1,0.3,2.2,0.5,3.6,0.5c0.9,0,1.5-0.1,2-0.4c0.5-0.2,0.7-0.6,0.7-1s-0.2-0.7-0.5-0.9s-0.9-0.4-1.7-0.5l-1.2-0.2
		c-2.4-0.5-4.2-1.2-5.4-2.2S55,56.2,55,54.3c0-1,0.2-2,0.7-2.8c0.4-0.8,1.1-1.5,1.9-2.1c0.8-0.6,1.8-1,2.9-1.3
		c1.1-0.3,2.4-0.5,3.7-0.5c1,0,2,0.1,2.9,0.2c0.9,0.2,1.7,0.4,2.4,0.7c0.7,0.3,1.2,0.7,1.6,1.2s0.6,1.1,0.6,1.7
		c0,0.6-0.1,1.2-0.4,1.6c-0.2,0.5-0.5,0.8-0.9,1.1c-0.2-0.1-0.6-0.3-1-0.4c-0.4-0.2-0.9-0.3-1.5-0.4c-0.5-0.1-1.1-0.2-1.6-0.3
		s-1-0.1-1.5-0.1c-0.9,0-1.6,0.1-2.1,0.3s-0.7,0.5-0.7,1c0,0.3,0.1,0.6,0.4,0.7c0.3,0.2,0.8,0.4,1.6,0.5l1.3,0.3
		c2.7,0.6,4.6,1.5,5.7,2.5C72,59.4,72.6,60.7,72.6,62.4z"/>
	<path id="XMLID_9_" class="st3" d="M95.5,58.4c0,1.7-0.3,3.3-0.8,4.6c-0.5,1.3-1.3,2.5-2.2,3.4s-2.1,1.6-3.4,2.1s-2.8,0.7-4.5,0.7
		c-1.6,0-3.1-0.2-4.5-0.7c-1.3-0.5-2.5-1.2-3.4-2.1c-1-0.9-1.7-2.1-2.2-3.4c-0.5-1.3-0.8-2.8-0.8-4.5c0-1.6,0.3-3.1,0.8-4.5
		c0.5-1.3,1.3-2.5,2.2-3.4c1-0.9,2.1-1.6,3.4-2.1s2.8-0.7,4.5-0.7c1.6,0,3.1,0.3,4.5,0.8c1.3,0.5,2.5,1.2,3.4,2.2
		c1,0.9,1.7,2.1,2.2,3.4C95.2,55.3,95.5,56.8,95.5,58.4z M80.9,58.4c0,1.7,0.3,3,1,3.9s1.6,1.4,2.7,1.4c1.2,0,2.1-0.5,2.7-1.4
		s0.9-2.2,0.9-3.9s-0.3-2.9-1-3.9c-0.6-0.9-1.5-1.4-2.7-1.4s-2.1,0.5-2.7,1.4S80.9,56.7,80.9,58.4z"/>
	<path id="XMLID_8_" class="st3" d="M108.7,53.2c-0.7,0-1.4,0.1-2,0.3s-1.2,0.5-1.6,1c-0.5,0.4-0.8,1-1.1,1.6
		c-0.3,0.6-0.4,1.4-0.4,2.2c0,1.7,0.5,3,1.5,3.9s2.2,1.3,3.6,1.3c0.8,0,1.6-0.1,2.2-0.3s1.2-0.4,1.6-0.6c0.6,0.4,1,0.8,1.2,1.3
		c0.3,0.5,0.4,1,0.4,1.6c0,1.1-0.5,2-1.6,2.6S109.9,69,108,69c-1.7,0-3.3-0.3-4.7-0.8s-2.6-1.2-3.6-2.2c-1-0.9-1.8-2-2.4-3.4
		c-0.6-1.3-0.8-2.7-0.8-4.3c0-1.8,0.3-3.4,0.9-4.8c0.6-1.4,1.4-2.5,2.4-3.4s2.2-1.6,3.6-2c1.3-0.4,2.8-0.7,4.3-0.7
		c2,0,3.5,0.4,4.6,1.1c1.1,0.7,1.6,1.7,1.6,2.8c0,0.5-0.1,1-0.4,1.5s-0.5,0.9-0.9,1.2c-0.5-0.2-1-0.4-1.7-0.6
		C110.2,53.3,109.5,53.2,108.7,53.2z"/>
	<path id="XMLID_7_" class="st3" d="M123.2,68.4c-0.3,0.1-0.8,0.1-1.4,0.2s-1.2,0.1-1.8,0.1c-0.6,0-1.2,0-1.6-0.1
		c-0.5-0.1-0.9-0.2-1.2-0.5c-0.3-0.2-0.6-0.6-0.8-1c-0.2-0.4-0.3-1-0.3-1.7V48.5c0.3-0.1,0.8-0.1,1.4-0.2c0.6-0.1,1.2-0.1,1.8-0.1
		c0.6,0,1.2,0,1.6,0.1c0.5,0.1,0.9,0.2,1.2,0.5c0.3,0.2,0.6,0.6,0.8,1c0.2,0.4,0.3,1,0.3,1.7V68.4z"/>
	<path id="XMLID_6_" class="st3" d="M134.4,47.6c1.5,0,2.9,0.2,4.1,0.5s2.3,0.8,3.2,1.4s1.5,1.4,2,2.4s0.7,2.1,0.7,3.4v9.3
		c0,0.7-0.2,1.3-0.6,1.8c-0.4,0.5-0.9,0.9-1.4,1.2c-1.8,1.1-4.3,1.6-7.6,1.6c-1.5,0-2.8-0.1-4-0.4c-1.2-0.3-2.2-0.7-3-1.2
		c-0.8-0.6-1.5-1.3-2-2.1c-0.5-0.9-0.7-1.9-0.7-3c0-1.9,0.6-3.4,1.7-4.4s2.9-1.7,5.3-1.9l5.5-0.6v-0.3c0-0.8-0.4-1.4-1.1-1.7
		s-1.7-0.5-3.1-0.5c-1.1,0-2.1,0.1-3.1,0.3s-1.9,0.5-2.7,0.8c-0.4-0.3-0.7-0.6-0.9-1.1c-0.2-0.5-0.4-1-0.4-1.6
		c0-0.7,0.2-1.3,0.5-1.7s0.9-0.8,1.6-1.1c0.8-0.3,1.8-0.5,2.9-0.7C132.4,47.7,133.4,47.6,134.4,47.6z M134.7,64c0.5,0,1,0,1.6-0.1
		s1-0.2,1.3-0.4v-3.3l-3,0.2c-0.8,0.1-1.4,0.2-1.9,0.5s-0.7,0.7-0.7,1.2c0,0.6,0.2,1,0.6,1.4C132.9,63.8,133.7,64,134.7,64z"/>
	<path id="XMLID_1_" class="st3" d="M154.2,68.4c-0.3,0.1-0.8,0.1-1.4,0.2s-1.2,0.1-1.8,0.1s-1.2,0-1.6-0.1
		c-0.5-0.1-0.9-0.2-1.2-0.5c-0.3-0.2-0.6-0.6-0.8-1c-0.2-0.4-0.3-1-0.3-1.7V41.3c0.3-0.1,0.8-0.1,1.4-0.2c0.6-0.1,1.2-0.1,1.8-0.1
		s1.2,0,1.6,0.1c0.5,0.1,0.9,0.2,1.2,0.5c0.3,0.2,0.6,0.6,0.8,1c0.2,0.4,0.3,1,0.3,1.7V68.4z"/>
</g>
</svg>
